<?xml version="1.0" standalone="no"?>
<!DOCTYPE svg PUBLIC "-//W3C//DTD SVG 20010904//EN"
 "http://www.w3.org/TR/2001/REC-SVG-20010904/DTD/svg10.dtd">
<svg version="1.0" xmlns="http://www.w3.org/2000/svg"
 width="340.000000pt" height="340.000000pt" viewBox="0 0 340.000000 340.000000"
 preserveAspectRatio="xMidYMid meet">

<g transform="translate(0.000000,340.000000) scale(0.100000,-0.100000)"
fill="#000000" stroke="none">
<path d="M883 2193 c-408 -411 -745 -758 -748 -771 -8 -31 20 -80 51 -88 41
-11 73 12 228 159 l146 139 0 -600 c0 -576 1 -601 19 -623 l19 -24 641 -3
c353 -2 641 1 641 5 0 5 -28 37 -63 71 l-63 62 -492 0 -493 0 -24 25 -25 24 0
612 0 612 361 366 c557 564 533 541 571 541 30 0 71 -38 465 -433 l433 -432 0
-177 0 -176 40 10 c27 7 53 7 80 0 l40 -10 0 100 0 101 131 -137 c162 -169
196 -189 239 -146 13 13 20 33 20 57 0 33 -11 48 -138 177 -76 78 -233 240
-350 362 l-211 221 -3 337 c-3 321 -4 338 -22 352 -11 8 -37 14 -57 14 -69 0
-69 1 -69 -303 l0 -272 -298 298 c-163 163 -304 297 -312 297 -8 1 -349 -336
-757 -747z"/>
</g>
</svg>
